# xmcd
#
# Track frame offsets:
# 150
# 19239
# 41019
# 56139
# 74815
# 93764
# 116995
# 131749
# 153525
# 167594
# 193125
# 205384
# 221089
# 242484
# 260459
#
# Disc length: 3652 seconds
#
#
# Revision: 0
# Processed by: cddbd v1.5PL3 Copyright (c) Steve Scherf et al.
# Submitted via: FreeRIP 2.53 
#
DISCID=e90e420f
DTITLE=The Bacon Brothers - Forosco Collector's Edition
DYEAR=2003
DGENRE=Country
TTITLE0=Old Guitars
TTITLE1=Woman's got A Mind To Change
TTITLE2=Grey-Green Eyes
TTITLE3=Only A Good Woman
TTITLE4=Brown Eyes
TTITLE5=Boys In Bars
TTITLE6=Memorize
TTITLE7=Guess Again (KJ's Song)
TTITLE8=Live With The Lie
TTITLE9=Adirondack Blue
TTITLE10=Rainy Day Man
TTITLE11=Babies Are Born Happy
TTITLE12=K9 Love
TTITLE13=They Still Hollor Boogie - LIVE
TTITLE14=Footloose - LIVE
EXTD=
EXTT0=
EXTT1=
EXTT2=
EXTT3=
EXTT4=
EXTT5=
EXTT6=
EXTT7=
EXTT8=
EXTT9=
EXTT10=
EXTT11=
EXTT12=
EXTT13=
EXTT14=
PLAYORDER=
